<svg width="37" height="35" viewBox="0 0 37 35" fill="none" xmlns="http://www.w3.org/2000/svg">
<path fill-rule="evenodd" clip-rule="evenodd" d="M18.2632 0.333344C19.7263 0.333344 21.023 1.26321 21.4751 2.63662L24.1289 10.6981H32.7167C34.1798 10.6981 35.4765 11.628 35.9286 13.0014C36.3807 14.3748 35.8855 15.8793 34.7018 16.7281L27.7541 21.7104L30.4079 29.7719C30.86 31.1453 30.3647 32.6498 29.181 33.4987C27.9974 34.3475 26.3946 34.3475 25.2109 33.4987L18.2632 28.5164L11.3154 33.4987C10.1318 34.3475 8.52898 34.3475 7.34532 33.4987C6.16165 32.6498 5.66636 31.1453 6.11848 29.7719L8.77227 21.7104L1.82455 16.7281C0.640885 15.8793 0.145593 14.3748 0.597712 13.0014C1.04983 11.628 2.34652 10.6981 3.80961 10.6981H12.3975L15.0513 2.63662C15.5034 1.26321 16.8001 0.333344 18.2632 0.333344ZM14.8511 14.0314H3.80961L12.7424 20.4372L9.33038 30.8019L18.2632 24.3962L27.196 30.8019L23.7839 20.4372L32.7167 14.0314H21.6752L18.2632 3.66668L14.8511 14.0314Z" fill="#B34D00"/>
</svg>
